<?xml version="1.0" encoding="UTF-8"?>
<!DOCTYPE svg PUBLIC "-//W3C//DTD SVG 1.1//EN" "http://www.w3.org/Graphics/SVG/1.1/DTD/svg11.dtd">
<svg version="1.1" id="Layer_1" xmlns="http://www.w3.org/2000/svg" xmlns:xlink="http://www.w3.org/1999/xlink" x="0px" y="0px" width="32px" height="32px" viewBox="0 0 32 32" enable-background="new 0 0 32 32" xml:space="preserve">
  <g id="icon">
    <path d="M20,32H0V14h20V32zM2,30h16V16h-5v5H7v-5H2V30zM9,19h2v-3H9V19zM12,28h-2v-4h2V28zM6,28H4v-4h2V28zM9,27H7v-3h2V27z" fill="#FFFFFF"/>
    <path d="M6,0v12h2h6h2h6v3v2v3v2h10V0H6zM14,10H8V7h6V10zM22,10h-6V7h6V10zM30,20h-6v-3h6V20zM30,15h-6v-3h6V15zM30,10h-6V7h6V10zM30,5H8V2h22V5z" fill="#FFFFFF"/>
  </g>
</svg>
