<?xml version="1.0" encoding="UTF-8"?>
<!DOCTYPE svg PUBLIC "-//W3C//DTD SVG 1.1//EN" "http://www.w3.org/Graphics/SVG/1.1/DTD/svg11.dtd">
<svg version="1.1" id="Layer_1" xmlns="http://www.w3.org/2000/svg" xmlns:xlink="http://www.w3.org/1999/xlink" x="0px" y="0px" width="32px" height="32px" viewBox="0 0 32 32" enable-background="new 0 0 32 32" xml:space="preserve">
  <g id="icon">
    <path d="M28,32H2V0h26V32zM4,30h22V2H4V30z" fill="#FFFFFF"/>
    <path d="M24,12h-6v-2h6V12zM16,12H6v-2h10V12z" fill="#FFFFFF"/>
    <path d="M24,16h-6v-2h6V16zM16,16H6v-2h10V16z" fill="#FFFFFF"/>
    <path d="M24,20h-6v-2h6V20zM16,20H6v-2h10V20z" fill="#FFFFFF"/>
    <rect x="6" y="4" width="18" height="3" fill="#FFFFFF"/>
    <path d="M24,28h-8v-6h8V28zM18,26h4v-2h-4V26z" fill="#FFFFFF"/>
    <polygon points="9.16,28.014 5.933,24.787 7.347,23.373 9.16,25.186 12.653,21.693 14.067,23.107" fill="#FFFFFF" stroke-linejoin="miter"/>
  </g>
</svg>
