<?xml version="1.0" encoding="UTF-8"?>
<!DOCTYPE svg PUBLIC "-//W3C//DTD SVG 1.1//EN" "http://www.w3.org/Graphics/SVG/1.1/DTD/svg11.dtd">
<svg version="1.1" id="Layer_1" xmlns="http://www.w3.org/2000/svg" xmlns:xlink="http://www.w3.org/1999/xlink" x="0px" y="0px" width="32px" height="32px" viewBox="0 0 32 32" enable-background="new 0 0 32 32" xml:space="preserve">
  <g id="icon">
    <path d="M24.015,30.021c-2.197,0,-3.985,-1.788,-3.985,-3.985s1.788,-3.985,3.985,-3.985S28,23.838,28,26.036S26.212,30.021,24.015,30.021zM24.015,24.051c-1.095,0,-1.985,0.89,-1.985,1.985s0.89,1.985,1.985,1.985S26,27.13,26,26.036S25.11,24.051,24.015,24.051zM12.015,30.021c-2.197,0,-3.985,-1.788,-3.985,-3.985s1.788,-3.985,3.985,-3.985S16,23.838,16,26.036S14.212,30.021,12.015,30.021zM12.015,24.051c-1.095,0,-1.985,0.89,-1.985,1.985s0.89,1.985,1.985,1.985S14,27.13,14,26.036S13.11,24.051,12.015,24.051zM26.762,22H8.892L4.498,6H0V4h6.023l4.394,16h14.941l3.614,-10H10V8h21.821L26.762,22z" fill="#FFFFFF"/>
  </g>
</svg>
