<?xml version="1.0" encoding="UTF-8"?>
<!DOCTYPE svg PUBLIC "-//W3C//DTD SVG 1.1//EN" "http://www.w3.org/Graphics/SVG/1.1/DTD/svg11.dtd">
<svg version="1.1" id="Layer_1" xmlns="http://www.w3.org/2000/svg" xmlns:xlink="http://www.w3.org/1999/xlink" x="0px" y="0px" width="32px" height="32px" viewBox="0 0 32 32" enable-background="new 0 0 32 32" xml:space="preserve">
  <g id="icon">
    <path d="M24.979,29.367c-2.378,0,-4.313,-1.947,-4.313,-4.339s1.935,-4.339,4.313,-4.339s4.313,1.947,4.313,4.339S27.357,29.367,24.979,29.367zM24.979,22.688c-1.275,0,-2.313,1.049,-2.313,2.339s1.037,2.339,2.313,2.339s2.313,-1.049,2.313,-2.339S26.254,22.688,24.979,22.688z" fill="#FFFFFF"/>
    <path d="M6.979,29.367c-2.378,0,-4.313,-1.947,-4.313,-4.339s1.935,-4.339,4.313,-4.339s4.313,1.947,4.313,4.339S9.357,29.367,6.979,29.367zM6.979,22.688c-1.275,0,-2.313,1.049,-2.313,2.339s1.037,2.339,2.313,2.339c1.275,0,2.313,-1.049,2.313,-2.339S8.254,22.688,6.979,22.688z" fill="#FFFFFF"/>
    <path d="M32,26.033h-3.667v-2H30V6.257c0,-0.108,0,-0.257,-0.297,-0.257h-17.12c-0.335,0,-0.583,0.203,-0.583,0.257v17.777h8.833v2H10V12H7.967v6H2.065c-0.031,0.157,-0.065,0.356,-0.065,0.489v5.544h1.567v2H1.764c-0.956,0,-1.764,-0.765,-1.764,-1.67v-5.874c0,-0.422,0.104,-0.892,0.154,-1.117c0.518,-2.339,1.662,-5.609,2.059,-6.256c0.504,-0.823,1.38,-1.116,2.032,-1.116H10V6.257C10,4.863,11.341,4,12.583,4h17.12C31.034,4,32,4.949,32,6.257V26.033zM2.574,16h3.393v-4H4.245c-0.071,0,-0.253,0.041,-0.327,0.161C3.753,12.45,3.107,14.161,2.574,16z" fill="#FFFFFF"/>
  </g>
</svg>
