<?xml version="1.0" encoding="UTF-8"?>
<!DOCTYPE svg PUBLIC "-//W3C//DTD SVG 1.1//EN" "http://www.w3.org/Graphics/SVG/1.1/DTD/svg11.dtd">
<svg version="1.1" id="Layer_1" xmlns="http://www.w3.org/2000/svg" xmlns:xlink="http://www.w3.org/1999/xlink" x="0px" y="0px" width="32px" height="32px" viewBox="0 0 32 32" enable-background="new 0 0 32 32" xml:space="preserve">
  <g id="icon">
    <path d="M25.981,32.032l-0.03,-0.032H0V6h0.093L6.61,0H32v26.436L25.981,32.032zM2,30h22V8h-7v8h-7V8H2V30zM26,7.414v21.869l4,-3.719V3.414L26,7.414zM12,14h3V8h-3V14zM3.045,6h21.54l4,-4H7.39L3.045,6zM15,28h-2v-6h2V28zM6,28H4v-6h2V28zM12,26h-2v-4h2V26zM9,26H7v-4h2V26z" fill="#FFFFFF"/>
  </g>
</svg>
