<?xml version="1.0" encoding="UTF-8"?>
<!DOCTYPE svg PUBLIC "-//W3C//DTD SVG 1.1//EN" "http://www.w3.org/Graphics/SVG/1.1/DTD/svg11.dtd">
<svg version="1.1" id="Layer_1" xmlns="http://www.w3.org/2000/svg" xmlns:xlink="http://www.w3.org/1999/xlink" x="0px" y="0px" width="32px" height="32px" viewBox="0 0 32 32" enable-background="new 0 0 32 32" xml:space="preserve">
  <g id="icon">
    <path d="M29.967,32h-2c0,-5.232,-2.765,-10.012,-6.623,-12.388c-0.617,1.578,-1.618,3.113,-2.089,3.795C17.185,26.4,16.324,26.4,16,26.4c-0.324,0,-1.183,0,-3.25,-2.987c-0.472,-0.683,-1.476,-2.221,-2.094,-3.801C6.798,21.989,4.033,26.769,4.033,32h-2c0,-3.97,1.47,-7.987,4.034,-11.021c1.609,-1.905,3.516,-3.298,5.581,-4.112C8.888,15.328,7.017,12.379,7.017,9c0,-4.963,4.037,-9,9,-9c4.963,0,9,4.037,9,9c0,3.384,-1.877,6.338,-4.645,7.875c2.058,0.815,3.957,2.205,5.561,4.104C28.496,24.013,29.967,28.03,29.967,32zM15.738,24.451L15.738,24.451L15.738,24.451zM12.454,18.713c0.769,2.086,2.684,4.743,3.546,5.537c0.863,-0.794,2.775,-3.449,3.546,-5.537c-1.131,-0.44,-2.324,-0.68,-3.546,-0.68S13.584,18.273,12.454,18.713zM16.017,2c-3.86,0,-7,3.14,-7,7c0,3.86,3.14,7,7,7c3.86,0,7,-3.14,7,-7C23.017,5.14,19.876,2,16.017,2z" fill="#FFFFFF"/>
  </g>
</svg>
