<?xml version="1.0" encoding="UTF-8"?>
<!DOCTYPE svg PUBLIC "-//W3C//DTD SVG 1.1//EN" "http://www.w3.org/Graphics/SVG/1.1/DTD/svg11.dtd">
<svg version="1.1" id="Layer_1" xmlns="http://www.w3.org/2000/svg" xmlns:xlink="http://www.w3.org/1999/xlink" x="0px" y="0px" width="32px" height="32px" viewBox="0 0 32 32" enable-background="new 0 0 32 32" xml:space="preserve">
  <g id="icon">
    <path d="M24.015,32.021c-2.197,0,-3.985,-1.788,-3.985,-3.985s1.788,-3.985,3.985,-3.985S28,25.838,28,28.036S26.212,32.021,24.015,32.021zM24.015,26.051c-1.095,0,-1.985,0.89,-1.985,1.985s0.89,1.985,1.985,1.985S26,29.13,26,28.036S25.11,26.051,24.015,26.051zM12.015,32.021c-2.197,0,-3.985,-1.788,-3.985,-3.985s1.788,-3.985,3.985,-3.985S16,25.838,16,28.036S14.212,32.021,12.015,32.021zM12.015,26.051c-1.095,0,-1.985,0.89,-1.985,1.985s0.89,1.985,1.985,1.985S14,29.13,14,28.036S13.11,26.051,12.015,26.051zM26.762,24H8.892L4.498,8H0V6h6.023l4.394,16h14.941l4.098,-11.34l1.881,0.68L26.762,24z" fill="#FFFFFF"/>
    <path d="M18.017,18.16l-6.086,-6.01l1.405,-1.423l3.657,3.611V2.162h2v12.223l3.705,-3.658l1.405,1.423L18.017,18.16zM17.955,15.288l0.061,0.061l0.061,-0.061H17.955z" fill="#FFFFFF"/>
  </g>
</svg>
