<?xml version="1.0" encoding="UTF-8"?>
<!DOCTYPE svg PUBLIC "-//W3C//DTD SVG 1.1//EN" "http://www.w3.org/Graphics/SVG/1.1/DTD/svg11.dtd">
<svg version="1.1" id="Layer_1" xmlns="http://www.w3.org/2000/svg" xmlns:xlink="http://www.w3.org/1999/xlink" x="0px" y="0px" width="32px" height="32px" viewBox="0 0 32 32" enable-background="new 0 0 32 32" xml:space="preserve">
  <g id="icon">
    <polygon points="26,32 0,32 0,0 26,0 26,8.033 24,8.033 24,2 2,2 2,30 24,30 24,26 26,26" fill="#FFFFFF" stroke-linejoin="miter"/>
    <rect x="4" y="10" width="6" height="2" fill="#FFFFFF"/>
    <rect x="4" y="14" width="6" height="2" fill="#FFFFFF"/>
    <rect x="4" y="18" width="6" height="2" fill="#FFFFFF"/>
    <rect x="4" y="4" width="18" height="3" fill="#FFFFFF"/>
    <polygon points="7.04,28.014 3.933,24.907 5.347,23.493 7.04,25.186 10.333,21.893 11.747,23.307" fill="#FFFFFF" stroke-linejoin="miter"/>
    <path d="M17,27.817V24h-3V10h18v14h-7.688L17,27.817zM16,22h3v2.517L23.822,22H30V12H16V22z" fill="#FFFFFF"/>
    <rect x="18" y="16" width="2" height="2" fill="#FFFFFF"/>
    <rect x="22" y="16" width="2" height="2" fill="#FFFFFF"/>
    <rect x="26" y="16" width="2" height="2" fill="#FFFFFF"/>
  </g>
</svg>
